<svg width="40" height="44" viewBox="0 0 40 44" fill="none" xmlns="http://www.w3.org/2000/svg">
<path d="M17.1994 0.678305C18.7659 -0.226102 20.6959 -0.226102 22.2623 0.678306L36.9303 9.14684C38.4967 10.0512 39.4617 11.7227 39.4617 13.5315V30.4685C39.4617 32.2773 38.4967 33.9488 36.9303 34.8532L22.2623 43.3217C20.6959 44.2261 18.7659 44.2261 17.1994 43.3217L2.53147 34.8532C0.96499 33.9488 0 32.2773 0 30.4685V13.5315C0 11.7227 0.964991 10.0512 2.53147 9.14684L17.1994 0.678305Z" fill="#FF6846"/>
<path fill-rule="evenodd" clip-rule="evenodd" d="M18.1505 13.2983C18.5874 13.2983 18.9415 13.6525 18.9415 14.0894V28.3289C18.9415 28.7659 18.5874 29.12 18.1505 29.12C17.7136 29.12 17.3594 28.7659 17.3594 28.3289V14.0894C17.3594 13.6525 17.7136 13.2983 18.1505 13.2983Z" fill="white"/>
<path opacity="0.5" fill-rule="evenodd" clip-rule="evenodd" d="M14.9825 23.1074C15.4194 23.1074 15.7736 23.4616 15.7736 23.8985V30.2272C15.7736 30.6641 15.4194 31.0183 14.9825 31.0183C14.5456 31.0183 14.1914 30.6641 14.1914 30.2272V23.8985C14.1914 23.4616 14.5456 23.1074 14.9825 23.1074Z" fill="white"/>
<path opacity="0.3" fill-rule="evenodd" clip-rule="evenodd" d="M11.8184 20.418C12.2553 20.418 12.6095 20.7721 12.6095 21.2091V22.7912C12.6095 23.2281 12.2553 23.5823 11.8184 23.5823C11.3815 23.5823 11.0273 23.2281 11.0273 22.7912V21.2091C11.0273 20.7721 11.3815 20.418 11.8184 20.418Z" fill="white"/>
<path fill-rule="evenodd" clip-rule="evenodd" d="M21.3145 14.8799C21.7514 14.8799 22.1056 15.2341 22.1056 15.671V29.9105C22.1056 30.3474 21.7514 30.7016 21.3145 30.7016C20.8776 30.7016 20.5234 30.3474 20.5234 29.9105V15.671C20.5234 15.2341 20.8776 14.8799 21.3145 14.8799Z" fill="white"/>
<path opacity="0.3" fill-rule="evenodd" clip-rule="evenodd" d="M24.4786 21.209C24.9155 21.209 25.2697 21.5632 25.2697 22.0001V28.3287C25.2697 28.7657 24.9155 29.1198 24.4786 29.1198C24.0417 29.1198 23.6875 28.7657 23.6875 28.3287V22.0001C23.6875 21.5632 24.0417 21.209 24.4786 21.209Z" fill="white"/>
<path opacity="0.3" fill-rule="evenodd" clip-rule="evenodd" d="M27.6426 20.418C28.0796 20.418 28.4337 20.7721 28.4337 21.2091V22.7912C28.4337 23.2281 28.0796 23.5823 27.6426 23.5823C27.2057 23.5823 26.8516 23.2281 26.8516 22.7912V21.2091C26.8516 20.7721 27.2057 20.418 27.6426 20.418Z" fill="white"/>
</svg>
